# AST/ASF file generated using VICON BodyLanguage
# -----------------------------------------------
:version 1.10
:name VICON
:units
  mass 1.0
  length 0.45
  angle deg
:documentation
   .ast/.asf automatically generated from VICON data using
   VICON BodyBuilder and BodyLanguage model FoxedUp or BRILLIANT.MOD
:root
   order TX TY TZ RX RY RZ
   axis XYZ
   position 0 0 0  
   orientation 0 0 0 
:bonedata
  begin
     id 1 
     name lhipjoint
     direction 0.662698 -0.695252 0.27831 
     length 2.53073 
     axis 0 0 0  XYZ
  end
  begin
     id 2 
     name lfemur
     direction 0.34202 -0.939693 0  
     length 7.16147  
     axis 0 0 20  XYZ
    dof rx ry rz
    limits (-160.0 20.0)
           (-70.0 70.0)
           (-60.0 70.0)
  end
  begin
     id 3 
     name ltibia
     direction 0.34202 -0.939693 0   
     length 7.63967   
     axis 0 0 20   XYZ
    dof rx
    limits (-10.0 170.0)
  end
  begin
     id 4 
     name lfoot
     direction 0.0938457 -0.257721 0.961651   
     length 1.89793   
     axis -90 7.62852e-016 20   XYZ
    dof rx rz
    limits (-45.0 90.0)
           (-70.0 20.0)
  end
  begin
     id 5 
     name ltoes
     direction -0.00116841 -0.0030592 0.999995   
     length 0.955649   
     axis -90 7.62852e-016 20   XYZ
    dof rx
    limits (-90.0 20.0)
  end
  begin
     id 6 
     name rhipjoint
     direction -0.649445 -0.705948 0.282592   
     length 2.49238  
     axis 0 0 0  XYZ 
  end
  begin
     id 7 
     name rfemur
     direction -0.34202 -0.939693 0   
     length 6.90728   
     axis 0 0 -20   XYZ
    dof rx ry rz
    limits (-160.0 20.0)
           (-70.0 70.0)
           (-70.0 60.0)
  end
  begin
     id 8 
     name rtibia
     direction -0.34202 -0.939693 0   
     length 7.72868   
     axis 0 0 -20   XYZ
    dof rx
    limits (-10.0 170.0)
 end
 begin
     id 9 
     name rfoot
     direction -0.0920068 -0.252865 0.963117   
     length 1.97476  
     axis -90 -7.62852e-016 -20   XYZ
    dof rx rz
    limits (-45.0 90.0)
           (-20.0 70.0)
  end
  begin
     id 10 
     name rtoes
     direction 0.000391322 0.00230649 0.999997   
     length 0.992641   
     axis -90 -7.62852e-016 -20   XYZ
    dof rx
    limits (-90.0 20.0)
  end
  begin
     id 11 
     name lowerback
     direction -0.00875327 0.998321 -0.0572635   
     length 2.20024   
     axis 0 0 0   XYZ
    dof rx ry rz
    limits (-20.0 45.0)
           (-30.0 30.0)
           (-30.0 30.0)
  end
  begin
     id 12 
     name upperback
     direction 0.00753931 0.999972 -0.000360425   
     length 2.20538   
     axis 0 0 0   XYZ
    dof rx ry rz
    limits (-20.0 45.0)
           (-30.0 30.0)
           (-30.0 30.0)
  end
  begin
     id 13 
     name thorax
     direction 0.0117767 0.999601 0.0256663   
     length 2.21508   
     axis 0 0 0   XYZ
    dof rx ry rz
    limits (-20.0 45.0)
           (-30.0 30.0)
           (-30.0 30.0)
  end
  begin
     id 14 
     name lowerneck
     direction 0.060228 0.994909 0.0807986   
     length 1.7607   
     axis 0 0 0   XYZ
    dof rx ry rz
    limits (-20.0 45.0)
           (-30.0 30.0)
           (-30.0 30.0)
  end
  begin
     id 15 
     name upperneck
     direction -0.0563647 0.959594 -0.275685   
     length 1.75612   
     axis 0 0 0   XYZ
    dof rx ry rz
    limits (-20.0 45.0)
           (-30.0 30.0)
           (-30.0 30.0)
  end
  begin
     id 16
     name head
     direction -0.0161544 0.99458 -0.102714  
     length 1.79288  
     axis 0 0 0   XYZ
    dof rx ry rz
    limits (-20.0 45.0)
           (-30.0 30.0)
           (-30.0 30.0)
  end
  begin
     id 17 
     name lclavicle
     direction 0.93913 0.332189 -0.087669  
     length 3.52087  
     axis 0 0 0   XYZ
    dof ry rz
    limits (-20.0 10.0)
           (0.0 20.0)
  end
  begin
     id 18 
     name lhumerus
     direction 1 -4.48974e-011 -2.70836e-027   
     length 5.35289   
     axis -180 -30 -90   XYZ
    dof rx ry rz
    limits (-60.0 90.0)
           (-90.0 90.0)
           (-90.0 90.0)
  end
  begin
     id 19
     name lradius
     direction 1 -4.48961e-011 -9.76021e-027   
     length 3.27727   
     axis -180 -30 -90   XYZ
    dof rx
    limits (-10.0 170.0)
  end
  begin
     id 20
     name lwrist
     direction 1 -4.49103e-011 -2.23668e-026   
     length 1.63864   
     axis 1.44924e-014 90 90   XYZ
    dof ry
    limits (-180.0 0.0)
 end
  begin
     id 21 
     name lhand
     direction 1 3.0697e-005 0.000161777   
     length 0.54443   
     axis 2.85318e-014 90 90   XYZ
    dof rx rz
    limits (-90.0 90.0)
           (-45.0 45.0)
  end
  begin
     id 22 
     name lfingers
     direction 1 -4.49027e-011 -8.9447e-026   
     length 0.438912   
     axis 5.70628e-014 90 90   XYZ
    dof rx
    limits (0.0 90.0)
  end
  begin
     id 23
     name lthumb
     direction 0.707058 2.6516e-005 0.707156   
     length 0.630274   
     axis -90 45 -3.53137e-014   XYZ
    dof rx rz
    limits (-45.0 45.0)
           (-45.0 45.0)
  end
  begin
     id 24 
     name rclavicle
     direction -0.95274 0.284984 -0.105215   
     length 3.43401  
     axis 0 0 0   XYZ 
    dof ry rz
    limits (-10.0 20.0)
           (-20.0 0.0)
  end
  begin
     id 25 
     name rhumerus
     direction -0.999999 -0.000575019 -0.00106829  
     length 5.52077   
     axis -180 30 90   XYZ
    dof rx ry rz
    limits (-90.0 60.0)
           (-90.0 90.0)
           (-90.0 90.0)
  end
  begin
     id 26 
     name rradius
     direction -1 -4.4879e-011 -6.35415e-027   
     length 3.32364   
     axis -180 30 90   XYZ
    dof rx
    limits (-10.0 170.0)
  end
  begin
     id 27 
     name rwrist
     direction -1 -4.49048e-011 -9.98542e-027   
     length 1.66182   
     axis 6.32482e-015 -90 -90   XYZ
    dof ry
    limits (-180.0 0.0)
  end
  begin
     id 28
     name rhand
     direction -1 -4.48978e-011 -1.99771e-026   
     length 0.732235   
     axis 1.27479e-014 -90 -90   XYZ
    dof rx rz
    limits (-90.0 90.0)
           (-45.0 45.0)
  end
  begin
     id 29
     name rfingers
     direction -1 -4.49144e-011 -3.99245e-026   
     length 0.590347   
     axis 2.5496e-014 -90 -90   XYZ
    dof rx
    limits (0.0 90.0)
  end
  begin
     id 30
     name rthumb
     direction -0.707107 -6.35121e-011 0.707107   
     length 0.847624   
     axis -90 -45 -2.82974e-014   XYZ
    dof rx rz
    limits (-45.0 45.0)
           (-45.0 45.0)
  end
:hierarchy
  begin
    root lhipjoint rhipjoint lowerback
    lhipjoint lfemur
    lfemur ltibia
    ltibia lfoot
    lfoot ltoes
    rhipjoint rfemur
    rfemur rtibia
    rtibia rfoot
    rfoot rtoes
    lowerback upperback
    upperback thorax
    thorax lowerneck lclavicle rclavicle
    lowerneck upperneck
    upperneck head
    lclavicle lhumerus
    lhumerus lradius
    lradius lwrist
    lwrist lhand lthumb
    lhand lfingers
    rclavicle rhumerus
    rhumerus rradius
    rradius rwrist
    rwrist rhand rthumb
    rhand rfingers
  end

#!OML:ASF G:\Work\Work\Patient Classification 1\Elijah\terrain1\Elijah.ASF
:FULLY-SPECIFIED
:DEGREES
217
root 15.9331 20.0436 10.3657 7.10247 -4.73475 1.14357
lowerback 8.44188 0.995298 -2.77327
upperback 0.759408 1.03172 -0.70226
thorax -3.98293 0.551111 0.709847
lowerneck -10.483 16.475 13.0874
upperneck 30.2218 28.2061 -18.5352
head 18.0391 11.5396 -4.18452
rclavicle 3.926e-015 5.36719e-015
rhumerus -41.7943 1.91822 -89.3761
rradius 58.5996
rwrist -5.3852
rhand -15.6152 23.4137
rfingers 7.12502
rthumb 10.5714 -6.30048
lclavicle 3.926e-015 5.36719e-015
lhumerus -38.3208 6.28937 80.6268
lradius 69.094
lwrist 5.02925
lhand -9.39368 23.8283
lfingers 7.12502
lthumb 16.5674 53.1411
rfemur -45.2566 -8.37141 20.1182
rtibia 98.1377
rfoot -11.3299 4.06756
rtoes -15.4985
lfemur -5.02585 -2.87146 -26.3199
ltibia 9.67483
lfoot -5.58266 -5.87079
ltoes -5.26379
218
root 15.9227 20.04 10.4098 7.08156 -4.66261 1.17565
lowerback 8.3075 0.927606 -2.74707
upperback 1.06278 0.955564 -0.693163
thorax -3.58977 0.506325 0.718784
lowerneck -11.0644 16.6805 12.9354
upperneck 30.2427 28.4253 -18.3037
head 18.1464 11.5801 -3.94483
rclavicle -7.30534e-015 -1.37161e-014
rhumerus -41.2876 1.66706 -89.1458
rradius 58.242
rwrist -5.46646
rhand -16.2585 23.895
rfingers 7.12502
rthumb 9.9508 -5.84979
lclavicle -7.30534e-015 -1.37161e-014
lhumerus -37.7002 6.03711 80.4543
lradius 68.7427
lwrist 4.78515
lhand -10.1885 22.839
lfingers 7.12502
lthumb 15.8021 52.214
rfemur -46.2041 -8.52652 20.4169
rtibia 97.3107
rfoot -12.1835 3.14215
rtoes -15.8923
lfemur -4.31162 -2.81524 -26.3201
ltibia 8.79275
lfoot -5.06838 -5.95671
ltoes -6.32679
219
root 15.9198 20.0571 10.4558 7.10322 -4.48416 1.47268
lowerback 8.1745 0.799848 -2.95199
upperback 1.32189 0.775991 -0.751195
thorax -3.24269 0.413326 0.798038
lowerneck -11.5774 16.7821 12.708
upperneck 30.2839 28.4749 -18.0124
head 18.1732 11.5568 -3.72792
rclavicle 3.23025e-015 5.96354e-015
rhumerus -40.6664 1.52678 -88.9336
rradius 57.5201
rwrist -5.44966
rhand -16.9737 25.1748
rfingers 7.12502
rthumb 9.26067 -4.60184
lclavicle 3.23025e-015 5.96354e-015
lhumerus -37.0355 5.90514 80.2304
lradius 68.3214
lwrist 4.60824
lhand -10.3766 22.7552
lfingers 7.12502
lthumb 15.6209 52.1445
rfemur -47.4272 -8.93095 20.4457
rtibia 96.3042
rfoot -12.5304 1.99644
rtoes -17.168
lfemur -3.85537 -2.90926 -26.6137
ltibia 8.13573
lfoot -4.45025 -6.2937
ltoes -9.65506
220
root 15.9134 20.109 10.5068 7.23628 -4.43573 1.50397
lowerback 8.30489 0.735928 -3.04835
upperback 1.16501 0.676068 -0.694948
thorax -3.47627 0.369494 0.918679
lowerneck -11.3503 16.725 12.8742
upperneck 30.2967 28.3604 -18.0157
head 18.1328 11.5476 -3.80591
rclavicle -4.32357e-015 8.34896e-015
rhumerus -40.7846 1.3626 -88.7104
rradius 57.0179
rwrist -5.50259
rhand -17.7059 25.6676
rfingers 7.12502
rthumb 8.55412 -4.13909
lclavicle -4.32357e-015 8.34896e-015
lhumerus -37.1103 5.66886 79.9894
lradius 67.9612
lwrist 4.34831
lhand -9.85205 23.9169
lfingers 7.12502
lthumb 16.1261 53.266
rfemur -48.4458 -8.97544 20.7628
rtibia 94.9095
rfoot -12.9244 0.854647
rtoes -17.5915
lfemur -3.68306 -2.84274 -26.5464
ltibia 7.41257
lfoot -3.78158 -6.70303
ltoes -4.87955
221
root 15.9029 20.1263 10.5568 7.33259 -4.47 1.49962
lowerback 8.5931 0.689845 -3.22523
upperback 0.886845 0.586027 -0.561968
thorax -3.92593 0.336939 1.16148
lowerneck -10.8388 16.6801 13.0012
upperneck 30.3041 28.2735 -17.9711
head 18.0043 11.5757 -3.87475
rclavicle -1.59773e-014 2.32578e-014
rhumerus -41.3016 1.1976 -88.4151
rradius 57.0268
rwrist -5.9553
rhand -17.9453 25.1081
rfingers 7.12502
rthumb 8.32311 -4.70794
lclavicle -1.59773e-014 2.32578e-014
lhumerus -37.4378 5.43837 79.8348
lradius 67.3591
lwrist 3.9645
lhand -9.92882 24.8342
lfingers 7.12502
lthumb 16.0522 54.1893
rfemur -49.3923 -8.84166 21.1057
rtibia 93.5574
rfoot -13.5932 -0.374206
rtoes -17.7875
lfemur -3.29988 -2.68947 -26.4931
ltibia 6.64565
lfoot -3.19033 -6.86491
ltoes -3.21561
222
root 15.8902 20.1214 10.6095 7.31252 -4.47548 1.85787
lowerback 8.74718 0.606858 -3.73742
upperback 0.909034 0.421362 -0.541816
thorax -3.98566 0.264386 1.48893
lowerneck -10.8936 16.7276 12.6999
upperneck 30.3699 28.2605 -17.6102
head 17.8854 11.567 -3.68065
rclavicle -4.89507e-015 -4.07509e-015
rhumerus -41.178 1.13491 -88.1424
rradius 56.9541
rwrist -6.85216
rhand -17.7885 24.3315
rfingers 7.12502
rthumb 8.47445 -5.47842
lclavicle -4.89507e-015 -4.07509e-015
lhumerus -37.4607 5.53735 79.696
lradius 66.8184
lwrist 3.37496
lhand -10.638 24.574
lfingers 7.12502
lthumb 15.3692 53.9828
rfemur -50.2883 -8.83718 21.015
rtibia 92.2701
rfoot -14.2423 -1.55021
rtoes -17.1873
lfemur -2.95417 -2.60561 -26.8639
ltibia 6.31458
lfoot -2.72433 -6.85493
ltoes -2.53275
223
root 15.8747 20.1207 10.6536 7.33865 -4.40408 1.95184
lowerback 8.78962 0.53107 -3.86991
upperback 1.03535 0.309426 -0.535489
thorax -3.87253 0.207542 1.58382
lowerneck -11.0847 16.7492 12.5193
upperneck 30.4112 28.2081 -17.3516
head 17.8318 11.5346 -3.54554
rclavicle 6.58474e-015 -8.94531e-015
rhumerus -40.8292 0.922782 -87.9096
rradius 56.8242
rwrist -7.66462
rhand -17.7718 23.7007
rfingers 7.12502
rthumb 8.49055 -6.10857
lclavicle 6.58474e-015 -8.94531e-015
lhumerus -37.3612 5.70972 79.4297
lradius 66.7246
lwrist 2.21833
lhand -10.2587 25.268
lfingers 7.12502
lthumb 15.7345 54.6483
rfemur -51.1568 -8.7362 21.2337
rtibia 90.8325
rfoot -14.6223 -2.63765
rtoes -15.947
lfemur -2.46561 -2.56537 -26.9344
ltibia 5.74824
lfoot -2.13525 -6.74633
ltoes -3.64414
224
root 15.8642 20.122 10.6934 7.47149 -4.32585 1.84492
lowerback 8.8718 0.487646 -3.70842
upperback 0.937643 0.262567 -0.501436
thorax -4.01696 0.185806 1.53346
lowerneck -10.6311 16.7387 12.9014
upperneck 30.3636 28.1653 -17.4625
head 17.7942 11.5873 -3.69309
rclavicle -4.32357e-015 1.40143e-014
rhumerus -41.0467 0.525071 -87.6012
rradius 56.8171
rwrist -8.13632
rhand -17.8498 23.1672
rfingers 7.12502
rthumb 8.41527 -6.64511
lclavicle -4.32357e-015 1.40143e-014
lhumerus -37.5489 5.53138 79.1648
lradius 66.498
lwrist 1.65806
lhand -9.86002 25.1645
lfingers 7.12502
lthumb 16.1184 54.5142
rfemur -52.1276 -8.59571 21.65
rtibia 89.2015
rfoot -14.586 -3.57532
rtoes -15.2171
lfemur -2.19314 -2.51718 -26.8014
ltibia 5.49957
lfoot -1.68549 -6.64593
ltoes -5.15809
225
root 15.8523 20.1416 10.7432 7.52345 -4.48798 1.67715
lowerback 8.94387 0.535451 -3.61747
upperback 0.89631 0.334099 -0.422043
thorax -4.1041 0.222227 1.55559
lowerneck -10.5293 16.7094 12.9769
upperneck 30.5622 28.0783 -17.2679
head 17.8205 11.5781 -3.66118
rclavicle -1.50828e-014 -6.65929e-015
rhumerus -41.2463 0.100267 -87.2408
rradius 56.7768
rwrist -8.58778
rhand -17.9079 22.7773
rfingers 7.12502
rthumb 8.35917 -7.03733
lclavicle -1.50828e-014 -6.65929e-015
lhumerus -37.5997 5.27774 78.9681
lradius 66.1068
lwrist 1.39921
lhand -9.86579 25.5898
lfingers 7.12502
lthumb 16.1129 54.9399
rfemur -52.8044 -8.20205 22.0343
rtibia 87.3037
rfoot -14.5884 -4.06275
rtoes -14.4919
lfemur -2.0986 -2.21003 -26.5957
ltibia 5.5402
lfoot -1.13603 -6.60914
ltoes -3.80514
226
root 15.8312 20.1641 10.7967 7.55294 -4.78982 1.43694
lowerback 8.91957 0.564345 -3.76006
upperback 1.12593 0.373178 -0.223649
thorax -3.8556 0.237975 1.83814
lowerneck -11.1783 16.7698 12.6936
upperneck 30.73 28.1437 -17.0659
head 17.9724 11.5292 -3.46639
rclavicle -1.26725e-014 -1.86858e-014
rhumerus -40.7229 -0.0346877 -86.9432
rradius 56.4548
rwrist -9.28488
rhand -17.9253 22.5502
rfingers 7.12502
rthumb 8.34244 -7.2651
lclavicle -1.26725e-014 -1.86858e-014
lhumerus -37.0641 5.4669 78.7964
lradius 65.4949
lwrist 1.0921
lhand -10.2715 25.5317
lfingers 7.12502
lthumb 15.7222 54.913
rfemur -53.2689 -7.54455 22.4753
rtibia 85.264
rfoot -14.8149 -4.18799
rtoes -14.2728
lfemur -1.8993 -1.74831 -26.2769
ltibia 5.29449
lfoot -0.54239 -6.6507
ltoes -2.36378
227
root 15.8129 20.1732 10.8516 7.58394 -4.83373 1.52329
lowerback 8.91599 0.595417 -3.96325
upperback 1.00988 0.393966 -0.180576
thorax -3.97748 0.2555 1.99429
lowerneck -10.472 16.5841 12.9782
upperneck 30.8109 27.8869 -17.1506
head 17.8699 11.505 -3.68206
rclavicle -1.37037e-014 -4.91992e-015
rhumerus -40.9391 -0.3853 -86.5694
rradius 56.0255
rwrist -10.0085
rhand -17.9698 22.5494
rfingers 7.12502
rthumb 8.2995 -7.26752
lclavicle -1.37037e-014 -4.91992e-015
lhumerus -37.1756 5.32917 78.6387
lradius 64.8051
lwrist 0.486039
lhand -10.543 24.9009
lfingers 7.12502
lthumb 15.4607 54.3026
rfemur -53.7257 -7.266 22.526
rtibia 83.2426
rfoot -15.1247 -3.97858
rtoes -14.8047
lfemur -1.40317 -1.59247 -26.3093
ltibia 4.54928
lfoot -0.13653 -6.80593
ltoes -2.67589
